#!OML:ASF G:\ViconDB\ViconDB\414\test\team2\shane.ASF
:FULLY-SPECIFIED
:DEGREES
317
root 3.87233 16.5075 18.9668 -7.06929 -0.322277 -4.20078
lowerback 6.76577 5.15324 3.78864
upperback 2.77625 7.0756 -2.30821
thorax -0.144 3.60189 -4.9322
lowerneck -18.2819 -9.37316 -11.1961
upperneck 18.3388 -14.1007 17.5854
head 11.1444 -5.43949 5.95739
rclavicle -4.03533e-014 1.74931e-014
rhumerus -30.957 21.862 -100.478
rradius 32.1092
rwrist 24.5895
rhand -26.1809 -13.5843
rfingers 7.12502
rthumb 0.371038 -43.5637
lclavicle -4.03533e-014 1.74931e-014
lhumerus -45.1124 -6.86676 87.2817
lradius 19.8728
lwrist -14.0609
lhand -36.6262 7.48935
lfingers 7.12502
lthumb -9.71401 37.2453
rfemur 19.0855 -12.4321 11.3121
rtibia 49.5406
rfoot 5.58148 5.22203
rtoes -13.2501
lfemur -14.6624 3.41469 -14.6293
ltibia 42.6427
lfoot -24.4638 -12.9539
ltoes -3.68889
318
root 3.89252 16.4865 19.1415 -7.36343 -0.239733 -3.9404
lowerback 6.95916 4.95738 3.38163
upperback 3.01823 6.79392 -2.17925
thorax -0.09679 3.46058 -4.56866
lowerneck -18.3216 -9.23389 -11.0507
upperneck 18.3434 -13.852 17.262
head 11.0674 -5.34791 5.85614
rclavicle -1.55052e-014 1.59028e-014
rhumerus -31.4416 21.9138 -100.31
rradius 32.2364
rwrist 24.7426
rhand -26.0293 -13.2466
rfingers 7.12502
rthumb 0.51749 -43.2257
lclavicle -1.55052e-014 1.59028e-014
lhumerus -44.4795 -7.76906 88.358
lradius 20.1655
lwrist -13.5972
lhand -36.6404 7.02099
lfingers 7.12502
lthumb -9.7277 36.7763
rfemur 17.5651 -13.2668 10.3552
rtibia 52.9557
rfoot 3.22662 2.28341
rtoes -14.5986
lfemur -13.8464 3.21029 -15.0003
ltibia 42.9598
lfoot -24.9908 -12.6515
ltoes -3.75287
319
root 3.91606 16.4651 19.3205 -7.60541 -0.0285346 -3.8239
lowerback 7.03986 4.70182 3.13316
upperback 3.21876 6.44004 -2.07679
thorax -0.0108489 3.28469 -4.30579
lowerneck -18.1936 -8.8828 -10.9173
upperneck 18.1528 -13.381 17.3415
head 10.8924 -5.12988 5.95007
rclavicle 1.0138e-014 -2.54444e-014
rhumerus -31.9331 21.8208 -100.204
rradius 32.4307
rwrist 24.7269
rhand -25.6629 -12.6516
rfingers 7.12502
rthumb 0.871327 -42.6295
lclavicle 1.0138e-014 -2.54444e-014
lhumerus -44.0979 -9.38491 89.8217
lradius 20.6674
lwrist -12.8345
lhand -36.7959 7.6025
lfingers 7.12502
lthumb -9.87778 37.3508
rfemur 16.0885 -14.1125 9.63764
rtibia 56.0298
rfoot 0.961161 0.174204
rtoes -14.4886
lfemur -13.0541 3.1789 -15.2128
ltibia 43.2075
lfoot -25.6155 -12.6326
ltoes -3.81873
320
root 3.94054 16.4452 19.4977 -7.84216 0.0815451 -3.7352
lowerback 7.10399 4.4804 3.1157
upperback 3.44242 6.14612 -2.01523
thorax 0.147908 3.14415 -4.21168
lowerneck -18.0838 -8.7171 -10.8213
upperneck 18.1316 -13.1276 17.162
head 10.7972 -5.03318 5.91449
rclavicle -7.45443e-014 -9.54166e-015
rhumerus -32.3395 21.8269 -100.158
rradius 32.6222
rwrist 24.6013
rhand -25.7312 -12.6398
rfingers 7.12502
rthumb 0.805334 -42.618
lclavicle -7.45443e-014 -9.54166e-015
lhumerus -43.2873 -10.136 90.4524
lradius 20.4107
lwrist -14.2496
lhand -37.4208 7.42539
lfingers 7.12502
lthumb -10.4806 37.1441
rfemur 14.5981 -14.6796 9.05306
rtibia 58.7764
rfoot -0.977368 -1.15554
rtoes -13.5696
lfemur -12.2144 3.09466 -15.3825
ltibia 43.4515
lfoot -26.2247 -12.4874
ltoes -4.08527
321
root 3.9607 16.4338 19.6762 -8.08865 -0.119375 -3.11784
lowerback 7.07059 4.36602 2.3678
upperback 3.73629 5.94701 -2.03586
thorax 0.374901 3.04244 -3.79126
lowerneck -18.029 -8.5833 -10.746
upperneck 18.0642 -12.9114 17.0136
head 10.7074 -4.95037 5.88407
rclavicle -3.50855e-014 2.06736e-014
rhumerus -32.6024 21.7579 -99.9908
rradius 32.7372
rwrist 24.8739
rhand -25.9548 -12.7135
rfingers 7.12502
rthumb 0.589377 -42.6924
lclavicle -3.50855e-014 2.06736e-014
lhumerus -42.595 -11.4286 91.456
lradius 20.6602
lwrist -14.1503
lhand -37.662 7.77035
lfingers 7.12502
lthumb -10.7133 37.4772
rfemur 12.9943 -14.8154 7.98206
rtibia 61.2391
rfoot -2.69342 -1.90548
rtoes -12.9773
lfemur -11.3037 3.13547 -16.1416
ltibia 43.6628
lfoot -26.8095 -12.0261
ltoes -4.38154
